<?xml version="1.0" standalone="no"?>
<!DOCTYPE svg PUBLIC "-//W3C//DTD SVG 20010904//EN"
 "http://www.w3.org/TR/2001/REC-SVG-20010904/DTD/svg10.dtd">
<svg version="1.0" xmlns="http://www.w3.org/2000/svg"
 width="833.000000pt" height="833.000000pt" viewBox="0 0 833.000000 833.000000"
 preserveAspectRatio="xMidYMid meet">
<metadata>
Created by potrace 1.11, written by Peter Selinger 2001-2013
</metadata>
<g transform="translate(0.000000,833.000000) scale(0.100000,-0.100000)"
fill="#000000" stroke="none">
<path d="M0 8308 c0 -17 3 -19 9 -9 5 7 15 17 22 22 10 6 8 9 -8 9 -17 0 -23
-6 -23 -22z"/>
<path d="M8299 8321 c7 -5 17 -15 22 -22 6 -10 9 -8 9 9 0 16 -6 22 -22 22
-17 0 -19 -3 -9 -9z"/>
<path d="M3505 6440 c-48 -24 -735 -708 -735 -732 0 -9 7 -24 16 -32 14 -14
156 -16 1420 -16 l1405 0 24 -25 25 -24 0 -1409 c0 -1082 3 -1411 12 -1420 36
-36 54 -21 410 336 235 234 352 359 363 384 13 33 15 204 15 1468 l0 1432 -29
29 -29 29 -1429 0 c-1403 0 -1429 0 -1468 -20z"/>
<path d="M2257 5213 c-230 -229 -356 -362 -368 -388 -18 -38 -19 -94 -19
-1468 l0 -1429 29 -29 29 -29 1427 0 c1259 0 1430 2 1463 15 50 21 742 711
742 740 0 12 -5 26 -12 33 -9 9 -338 12 -1420 12 l-1409 0 -24 25 -25 24 0
1405 c0 1264 -2 1406 -16 1420 -8 9 -23 16 -32 16 -9 0 -173 -156 -365 -347z"/>
<path d="M0 23 c0 -17 6 -23 23 -23 16 0 18 3 8 9 -7 5 -17 15 -22 22 -6 10
-9 8 -9 -8z"/>
<path d="M8308 19 c-17 -18 -17 -19 2 -19 13 0 20 7 20 20 0 24 0 24 -22 -1z"/>
</g>
</svg>
