<?xml version="1.0" encoding="UTF-8" standalone="no"?>
<svg width="257px" height="61px" viewBox="0 0 257 61" version="1.1" xmlns="http://www.w3.org/2000/svg" xmlns:xlink="http://www.w3.org/1999/xlink" xmlns:sketch="http://www.bohemiancoding.com/sketch/ns">
    <!-- Generator: Sketch 3.3.1 (12002) - http://www.bohemiancoding.com/sketch -->
    <title>Group</title>
    <desc>Created with Sketch.</desc>
    <defs></defs>
    <g id="Page-1" stroke="none" stroke-width="1" fill="none" fill-rule="evenodd" sketch:type="MSPage">
        <g id="B&amp;C_style_guide" sketch:type="MSLayerGroup" transform="translate(-25.000000, -237.000000)">
            <g id="Group-64" sketch:type="MSShapeGroup">
                <g id="Group" transform="translate(25.000000, 237.000000)">
                    <path d="M98.0606,14.7946 L91.8456,14.7946 L91.8456,22.7286 L98.0606,22.7286 C100.8026,22.7286 102.3386,21.0466 102.3386,18.7436 C102.3386,16.4396 100.8026,14.7946 98.0606,14.7946 M97.6946,3.7896 L91.8456,3.7896 L91.8456,11.2486 L97.6946,11.2486 C100.2176,11.2486 101.9356,9.9316 101.9356,7.5196 C101.9356,5.1056 100.2176,3.7896 97.6946,3.7896 M98.4266,26.2746 L87.8966,26.2746 L87.8966,0.2436 L98.0236,0.2436 C102.8496,0.2436 105.8846,2.9856 105.8846,7.3726 C105.8846,10.1876 104.1296,12.1986 102.3746,12.8936 C104.3856,13.6976 106.2866,15.6356 106.2866,18.9256 C106.2866,23.7156 103.0326,26.2746 98.4266,26.2746" id="Fill-31" fill="#FFFFFF"></path>
                    <path d="M117.9222,3.2781 C116.3132,3.2781 115.3632,4.3751 115.3632,5.8371 C115.3632,6.8981 116.0572,7.8851 117.3742,9.4201 C117.7762,9.1641 118.6172,8.5791 118.6172,8.5791 C119.6402,7.8851 120.5182,7.0801 120.5182,5.8741 C120.5182,4.4111 119.4582,3.2781 117.9222,3.2781 L117.9222,3.2781 Z M116.3132,13.7341 C114.4122,15.0501 112.8042,16.2571 112.8042,18.6701 C112.8042,21.2661 114.8142,23.0941 117.5202,23.0941 C119.2752,23.0941 120.7742,22.6181 122.4922,21.0831 L116.3132,13.7341 Z M126.8432,26.2741 L124.7222,23.7151 C123.5892,24.7021 121.4682,26.4941 117.5202,26.4941 C112.1092,26.4941 109.1112,23.4591 109.1112,18.7431 C109.1112,15.1241 111.7072,13.0761 114.2662,11.3941 C113.0962,10.0421 111.5612,8.2141 111.5612,5.8011 C111.5612,2.4741 114.0472,0.0241 117.9222,0.0241 C121.6152,0.0241 124.1012,2.5101 124.1012,5.8371 C124.1012,7.8851 122.9672,9.3101 121.3222,10.4441 C121.3222,10.4441 120.0422,11.3211 119.4212,11.7601 L124.9052,18.3041 C125.8562,16.9521 126.2582,15.4531 126.2942,13.0761 L129.8772,13.0761 C129.7672,16.4031 129.0362,19.0361 127.2812,21.0831 L131.6322,26.2741 L126.8432,26.2741 Z" id="Fill-33" fill="#FFFFFF"></path>
                    <path d="M143.0119,26.4939 C140.3069,26.4939 137.9669,25.5069 136.1749,23.7149 C133.6159,21.1559 133.6529,18.2679 133.6529,13.2589 C133.6529,8.2499 133.6159,5.3619 136.1749,2.8029 C137.9669,1.0109 140.3069,0.0239 143.0119,0.0239 C147.8019,0.0239 151.3839,2.8389 152.2979,8.0309 L148.2769,8.0309 C147.6549,5.3989 145.8999,3.5709 143.0119,3.5709 C141.4759,3.5709 140.0869,4.1559 139.1729,5.1429 C137.8939,6.5319 137.6009,8.0309 137.6009,13.2589 C137.6009,18.4869 137.8939,19.9859 139.1729,21.3759 C140.0869,22.3629 141.4759,22.9479 143.0119,22.9479 C145.8999,22.9479 147.6919,21.1199 148.3129,18.4869 L152.2979,18.4869 C151.4209,23.6789 147.7279,26.4939 143.0119,26.4939" id="Fill-35" fill="#FFFFFF"></path>
                    <path d="M87.8968,60.7645 L87.8968,34.7335 L104.5318,34.7335 L104.5318,38.2805 L91.8448,38.2805 L91.8448,45.8845 L102.6668,45.8845 L102.6668,49.3945 L91.8448,49.3945 L91.8448,57.2185 L104.5318,57.2185 L104.5318,60.7645 L87.8968,60.7645 Z" id="Fill-37" fill="#FFFFFF"></path>
                    <path d="M122.5419,60.7645 L116.8749,50.7835 L111.2449,60.7645 L106.7109,60.7645 L114.7549,47.4205 L107.2229,34.7335 L111.7569,34.7335 L116.8749,44.0565 L122.0299,34.7335 L126.5639,34.7335 L119.0319,47.4205 L127.1119,60.7645 L122.5419,60.7645 Z" id="Fill-39" fill="#FFFFFF"></path>
                    <path d="M136.5704,60.9838 C133.8654,60.9838 131.5254,59.9968 129.7334,58.2058 C127.1744,55.6458 127.2114,52.7578 127.2114,47.7488 C127.2114,42.7408 127.1744,39.8518 129.7334,37.2928 C131.5254,35.5018 133.8654,34.5138 136.5704,34.5138 C141.3604,34.5138 144.9424,37.3298 145.8564,42.5208 L141.8354,42.5208 C141.2134,39.8888 139.4584,38.0608 136.5704,38.0608 C135.0344,38.0608 133.6454,38.6458 132.7314,39.6328 C131.4524,41.0218 131.1594,42.5208 131.1594,47.7488 C131.1594,52.9768 131.4524,54.4758 132.7314,55.8658 C133.6454,56.8528 135.0344,57.4378 136.5704,57.4378 C139.4584,57.4378 141.2504,55.6098 141.8714,52.9768 L145.8564,52.9768 C144.9794,58.1688 141.2864,60.9838 136.5704,60.9838" id="Fill-41" fill="#FFFFFF"></path>
                    <path d="M163.2853,60.7645 L163.2853,49.3945 L152.7193,49.3945 L152.7193,60.7645 L148.7713,60.7645 L148.7713,34.7335 L152.7193,34.7335 L152.7193,45.8475 L163.2853,45.8475 L163.2853,34.7335 L167.2343,34.7335 L167.2343,60.7645 L163.2853,60.7645 Z" id="Fill-43" fill="#FFFFFF"></path>
                    <path d="M181.2357,40.6199 L177.1777,52.1729 L185.1837,52.1729 L181.2357,40.6199 Z M188.0727,60.7649 L186.2807,55.5369 L176.0077,55.5369 L174.2157,60.7649 L170.0117,60.7649 L179.5537,34.7339 L182.7347,34.7339 L192.2767,60.7649 L188.0727,60.7649 Z" id="Fill-45" fill="#FFFFFF"></path>
                    <path d="M210.9122,60.7645 L198.8842,42.4475 L198.8842,60.7645 L194.9352,60.7645 L194.9352,34.7335 L198.5552,34.7335 L210.5832,53.0135 L210.5832,34.7335 L214.5312,34.7335 L214.5312,60.7645 L210.9122,60.7645 Z" id="Fill-47" fill="#FFFFFF"></path>
                    <path d="M234.3166,58.0225 C232.3426,60.1065 229.8926,60.9835 227.1506,60.9835 C224.4456,60.9835 222.1056,59.9965 220.3136,58.2055 C217.7546,55.6465 217.7916,52.7575 217.7916,47.7485 C217.7916,42.7405 217.7546,39.8515 220.3136,37.2925 C222.1056,35.5015 224.3716,34.5145 227.1506,34.5145 C232.6716,34.5145 235.8886,38.1335 236.6196,42.5935 L232.6346,42.5935 C231.9766,39.7425 230.0756,38.0605 227.1506,38.0605 C225.6156,38.0605 224.2256,38.6825 223.3116,39.6695 C222.0326,41.0585 221.7396,42.5205 221.7396,47.7485 C221.7396,52.9775 222.0326,54.4765 223.3116,55.8655 C224.2256,56.8525 225.6156,57.4375 227.1506,57.4375 C228.8686,57.4375 230.3676,56.7795 231.3916,55.6095 C232.3426,54.5125 232.7076,53.1965 232.7076,51.5145 L232.7076,50.0525 L227.1506,50.0525 L227.1506,46.6885 L236.6566,46.6885 L236.6566,50.6735 C236.6566,54.0375 236.0346,56.1945 234.3166,58.0225" id="Fill-49" fill="#FFFFFF"></path>
                    <path d="M240.2385,60.7645 L240.2385,34.7335 L256.8735,34.7335 L256.8735,38.2805 L244.1875,38.2805 L244.1875,45.8845 L255.0085,45.8845 L255.0085,49.3945 L244.1875,49.3945 L244.1875,57.2185 L256.8735,57.2185 L256.8735,60.7645 L240.2385,60.7645 Z" id="Fill-51" fill="#FFFFFF"></path>
                    <path d="M50.2913,50.3745 L11.1893,50.3745 L11.1893,11.2725 L0.7993,21.6625 L0.7993,60.7645 L39.9013,60.7645 L50.2913,50.3745 Z" id="Fill-53" fill="#FFFFFF"></path>
                    <path d="M12.0591,10.4142 L51.1611,10.4142 L51.1611,49.5162 L61.5511,39.1262 L61.5511,0.0242 L22.4491,0.0242 L12.0591,10.4142 Z" id="Fill-55" fill="#43B985"></path>
                </g>
            </g>
        </g>
    </g>
</svg>