<?xml version="1.0" encoding="UTF-8" standalone="no"?>
<svg width="56px" height="51px" viewBox="0 0 56 51" version="1.1" xmlns="http://www.w3.org/2000/svg" xmlns:xlink="http://www.w3.org/1999/xlink" xmlns:sketch="http://www.bohemiancoding.com/sketch/ns">
    <!-- Generator: Sketch 3.3.1 (12002) - http://www.bohemiancoding.com/sketch -->
    <title>Imported Layers</title>
    <desc>Created with Sketch.</desc>
    <defs></defs>
    <g id="Page-1" stroke="none" stroke-width="1" fill="none" fill-rule="evenodd" sketch:type="MSPage">
        <g id="Imported-Layers" sketch:type="MSLayerGroup" fill="#43B985">
            <path d="M53.535,1.715 C52.68,0.859 51.391,0.32 50,0.32 L22.145,0.32 C20.75,0.32 19.465,0.855 18.609,1.715 C17.754,2.57 17.109,3.859 17.109,5.145 L17.109,29.039 C17.109,30.324 17.645,31.609 18.609,32.469 C19.465,33.324 20.754,33.863 22.145,33.863 L29.645,33.863 L29.645,29.684 L21.5,29.684 L21.5,4.5 L50.75,4.5 L50.75,29.785 L42.5,29.785 L42.5,33.965 L50,33.965 C51.395,33.965 52.68,33.43 53.535,32.57 C54.391,31.715 55.035,30.426 55.035,29.141 L55.035,5.145 C55.035,3.855 54.5,2.57 53.535,1.715 L53.535,1.715 Z" id="Fill-1" sketch:type="MSShapeGroup"></path>
            <path d="M36.715,18.535 C35.859,17.68 34.57,17.141 33.18,17.141 L25.785,17.141 L25.785,21.32 L33.93,21.32 L33.93,46.605 L4.68,46.605 L4.68,21.32 L12.93,21.32 L12.93,17.141 L5.43,17.141 C4.035,17.141 2.75,17.676 1.895,18.535 C1.039,19.391 0.395,20.68 0.395,21.965 L0.395,45.855 C0.395,47.141 0.93,48.426 1.895,49.285 C2.75,50.141 4.039,50.68 5.43,50.68 L33.18,50.68 C34.574,50.68 35.859,50.145 36.715,49.285 C37.57,48.43 38.215,47.141 38.215,45.855 L38.215,21.965 C38.215,20.68 37.68,19.395 36.715,18.535 L36.715,18.535 Z" id="Fill-2" sketch:type="MSShapeGroup"></path>
        </g>
    </g>
</svg>