<?xml version="1.0" encoding="UTF-8" standalone="no"?>
<svg width="180px" height="180px" viewBox="0 0 180 180" version="1.1" xmlns="http://www.w3.org/2000/svg" xmlns:xlink="http://www.w3.org/1999/xlink" xmlns:sketch="http://www.bohemiancoding.com/sketch/ns">
    <!-- Generator: Sketch 3.0.3 (7892) - http://www.bohemiancoding.com/sketch -->
    <title>icon</title>
    <desc>Created with Sketch.</desc>
    <defs>
        <path d="M80.3819095,98.3623022 L84.7236181,98.3623022 L83.4874372,94.3530511 L62.7738693,26.4972307 C62.1105528,24.2966643 59.6080402,22.4879796 57.2261307,22.4879796 L53.7889447,22.4879796 L49.4472362,22.4879796 L50.6834171,26.4972307 L71.3668342,94.3530511 C72.0301508,96.5536175 74.5326633,98.3623022 76.9145729,98.3623022 L80.3819095,98.3623022 L80.3819095,98.3623022 Z M65.0954774,98.3623022 L69.4371859,98.3623022 L68.201005,94.3530511 L47.4874372,26.4972307 C46.8241206,24.2966643 44.321608,22.4879796 41.9396985,22.4879796 L38.5025126,22.4879796 L34.160804,22.4879796 L35.3969849,26.4972307 L56.080402,94.3530511 C56.7437186,96.5536175 59.2462312,98.3623022 61.6281407,98.3623022 L65.0954774,98.3623022 L65.0954774,98.3623022 Z M107.396985,33.7319694 L109.628141,26.5575201 C116.080402,36.1134042 119.849246,47.6588415 119.849246,60.0483316 C119.849246,93.1774061 92.9849246,120.006229 59.879397,120.006229 C50.0502513,120.006229 40.7939698,117.654939 32.6231156,113.464819 L34.2512563,107.948331 C41.879397,112.048016 50.6231156,114.369162 59.879397,114.369162 C89.879397,114.369162 114.180905,90.0423526 114.180905,60.0784763 C114.211055,50.5225922 111.738693,41.5394583 107.396985,33.7319694 L107.396985,33.7319694 Z M85.7487437,15.2230961 L73.5678392,53.506922 L79.6281407,73.3120193 L98.2613065,13.9871616 C99.1055276,14.7106354 99.9497487,15.4341093 100.763819,16.1877279 L81.2261307,78.5270601 L86.321608,95.2272487 L87.0452261,97.5785388 C87.4974874,97.0359334 87.8291457,96.4330385 88.040201,95.7999989 L106.341709,37.1684703 C109.748744,44.0716169 111.678392,51.848961 111.678392,60.0483316 C111.678392,88.6255496 88.4924623,111.806858 59.9095477,111.806858 C50.8944724,111.806858 42.3919598,109.485713 35.0050251,105.446317 L36.241206,101.286342 L46.0703518,68.8807418 L40.0100503,49.0756445 L22.4321608,106.86312 C21.5577889,106.169791 20.7135678,105.446317 19.8994975,104.722843 L38.4422111,43.8606036 L33.3467337,27.160415 L32.6231156,24.8091249 C32.1708543,25.3517304 31.8090452,25.9546252 31.6281407,26.5876649 L14.080402,84.1641274 C10.281407,76.9595334 8.14070352,68.7601628 8.14070352,60.0784763 C8.14070352,31.5012583 31.3266332,8.31994956 59.9095477,8.31994956 C69.3165829,8.31994956 78.1507538,10.8219634 85.7487437,15.2230961 L85.7487437,15.2230961 Z M59.879397,0.120578979 C70.160804,0.120578979 79.839196,2.71302703 88.281407,7.26488349 L86.5326633,12.751227 C78.6633166,8.31994956 69.5577889,5.787791 59.879397,5.787791 C29.879397,5.787791 5.57788945,30.1146 5.57788945,60.0784763 C5.57788945,70.1166763 8.29145729,79.491692 13.0251256,87.5704836 L10.8542714,94.6544986 C3.94974874,84.8876013 -0.120603015,72.9502823 -0.120603015,60.0784763 C-0.0904522613,26.9494018 26.7738693,0.120578979 59.879397,0.120578979 L59.879397,0.120578979 Z" id="path-1"></path>
        <linearGradient x1="50%" y1="0%" x2="50%" y2="100%" id="linearGradient-3">
            <stop stop-color="#F5D570" offset="0%"></stop>
            <stop stop-color="#EAC44D" offset="100%"></stop>
        </linearGradient>
        <linearGradient x1="50%" y1="28.009826%" x2="50%" y2="100%" id="linearGradient-4">
            <stop stop-color="#F4D46F" offset="0%"></stop>
            <stop stop-color="#FDE192" offset="100%"></stop>
        </linearGradient>
    </defs>
    <g id="RED" stroke="none" stroke-width="1" fill="none" fill-rule="evenodd" sketch:type="MSPage">
        <g id="Desktop-HD" sketch:type="MSArtboardGroup" transform="translate(-682.000000, -87.000000)">
            <g id="HERO-3" sketch:type="MSLayerGroup" transform="translate(-13.000000, -514.000000)">
                <g id="LOGOS" transform="translate(0.000000, 502.000000)">
                    <g id="NuBits" transform="translate(695.000000, 99.000000)">
                        <g id="icon">
                            <circle id="Oval-24" fill="#FFFFFF" sketch:type="MSShapeGroup" cx="60" cy="60" r="60"></circle>
                            <g id="logo">
                                <mask id="mask-2" sketch:name="cutout" fill="white">
                                    <use xlink:href="#path-1"></use>
                                </mask>
                                <g id="cutout"></g>
                                <g id="circle" mask="url(#mask-2)" fill="url(#linearGradient-3)" sketch:type="MSShapeGroup">
                                    <ellipse id="Oval-1" cx="60" cy="59.9880421" rx="60" ry="59.9880421"></ellipse>
                                </g>
                            </g>
                            <path d="M20.4655355,58.3602259 C16.9154069,55.5869094 13.7864801,52.4820006 11.1690124,49.0756445 C16.1632611,26.6780991 36.1402558,9.91762103 59.9983233,9.91762103 C68.3621856,9.91762103 76.5455328,11.9976084 83.8864766,15.9767147 L72.3936875,52.2106979 L64.3908553,25.98477 C63.4882802,23.0607297 60.3593533,20.8300186 57.3206839,20.8300186 L47.3923583,20.8300186 L48.5657058,24.688546 C47.2720149,22.4276901 44.6244614,20.8300186 42.0671654,20.8300186 L35.4181957,20.8300186 C31.8680672,20.8300186 31.3265221,22.4879796 30.243432,26.0752042 L20.4655355,58.3602259 L20.4655355,58.3602259 Z M109.519608,52.6327244 C106.992398,55.3457514 104.104158,57.8477652 100.91506,60.0784763 L106.631368,41.7504715 C108.015317,45.2472619 108.978063,48.894776 109.519608,52.6327244 L109.519608,52.6327244 Z M115.988063,43.8907484 C115.446518,44.8553802 114.844801,45.8200121 114.212999,46.7544991 C113.099823,42.2026427 111.415016,37.7713652 109.158578,33.5812457 L110.151411,30.3859027 C112.678621,34.6363117 114.6342,39.1580235 115.988063,43.8907484 L115.988063,43.8907484 Z M7.01716709,42.5945244 C14.3280251,20.2874132 35.2978524,4.15997478 60.0284091,4.15997478 C68.9939881,4.15997478 77.7489662,6.30025166 85.6916268,10.3999369 L86.4437727,8.04864685 C78.2604254,3.85852733 69.2346748,1.71825045 60.0284091,1.71825045 C35.0872516,1.71825045 13.8466517,17.4236625 5.51287532,39.4594709 C5.96416285,40.514537 6.47562205,41.569603 7.01716709,42.5945244 L7.01716709,42.5945244 Z" id="Shape" fill="url(#linearGradient-4)" sketch:type="MSShapeGroup"></path>
                        </g>
                    </g>
                </g>
            </g>
        </g>
    </g>
</svg>