<?xml version="1.0" encoding="UTF-8" standalone="no"?>
<svg width="55px" height="55px" viewBox="0 0 55 55" version="1.1" xmlns="http://www.w3.org/2000/svg" xmlns:xlink="http://www.w3.org/1999/xlink" xmlns:sketch="http://www.bohemiancoding.com/sketch/ns">
    <!-- Generator: Sketch 3.3.1 (12002) - http://www.bohemiancoding.com/sketch -->
    <title>Imported Layers</title>
    <desc>Created with Sketch.</desc>
    <defs></defs>
    <g id="Page-1" stroke="none" stroke-width="1" fill="none" fill-rule="evenodd" sketch:type="MSPage">
        <g id="Imported-Layers" sketch:type="MSLayerGroup" transform="translate(-154.000000, -9.000000)" fill="#43B985">
            <g transform="translate(180.500000, 37.500000) rotate(45.000000) translate(-180.500000, -37.500000) translate(161.000000, 0.000000)" sketch:type="MSShapeGroup">
                <path d="M38.668,45.18 L31.852,35.812 L31.852,20.473 L31.773,20.473 C31.613,16.586 29.816,2.629 19.48,0 C9.145,2.629 7.348,16.586 7.188,20.473 L7.148,20.473 L7.148,35.809 L0.332,45.18 L0.332,47.738 L8.695,47.738 L7.148,51.996 C7.148,53.875 8.672,55.402 10.555,55.402 L28.445,55.402 C30.324,55.402 31.852,53.875 31.852,51.996 L30.305,47.734 L38.668,47.734 L38.668,45.18 Z M20.781,47.734 L18.227,47.734 L18.227,37.086 C18.227,36.383 18.797,35.809 19.504,35.809 C20.211,35.809 20.781,36.383 20.781,37.086 L20.781,47.734 Z M25.895,23.883 C25.895,25.766 24.367,27.289 22.484,27.289 L16.52,27.289 C14.637,27.289 13.109,25.762 13.109,23.883 L13.109,17.918 C13.109,16.035 14.637,14.512 16.52,14.512 L22.484,14.512 C24.367,14.512 25.895,16.039 25.895,17.918 L25.895,23.883 Z" id="Fill-1"></path>
                <path d="M15.992,57.109 C16.934,60.023 19.488,64.102 19.488,64.102 C19.488,64.102 22.043,60.023 22.984,57.109 L26.469,57.109 C26.621,57.691 26.719,58.301 26.719,58.934 C26.719,62.926 19.488,75 19.488,75 C19.488,75 12.258,62.926 12.258,58.934 C12.258,58.301 12.352,57.695 12.504,57.109 L15.992,57.109 Z" id="Fill-2"></path>
            </g>
        </g>
    </g>
</svg>