<?xml version="1.0" encoding="utf-8"?>
<!-- Generator: Adobe Illustrator 18.0.0, SVG Export Plug-In . SVG Version: 6.00 Build 0)  -->
<!DOCTYPE svg PUBLIC "-//W3C//DTD SVG 1.1//EN" "http://www.w3.org/Graphics/SVG/1.1/DTD/svg11.dtd">
<svg version="1.1"
	 id="svg2" xmlns:cc="http://creativecommons.org/ns#" xmlns:dc="http://purl.org/dc/elements/1.1/" xmlns:rdf="http://www.w3.org/1999/02/22-rdf-syntax-ns#" xmlns:inkscape="http://www.inkscape.org/namespaces/inkscape" xmlns:sodipodi="http://sodipodi.sourceforge.net/DTD/sodipodi-0.dtd" xmlns:svg="http://www.w3.org/2000/svg" sodipodi:docname="bitcoin-logo-noshadow.svg" inkscape:version="0.48.2 r9819"
	 xmlns="http://www.w3.org/2000/svg" xmlns:xlink="http://www.w3.org/1999/xlink" x="0px" y="0px" viewBox="0 0 512 512"
	 enable-background="new 0 0 512 512" xml:space="preserve">
<sodipodi:namedview  id="namedview20" bordercolor="#666666" pagecolor="#ffffff" borderopacity="1" inkscape:zoom="0.921875" inkscape:cx="212.51437" showgrid="false" guidetolerance="10" gridtolerance="10" objecttolerance="10" inkscape:cy="233.24617" inkscape:current-layer="svg2" inkscape:window-maximized="0" inkscape:window-y="0" inkscape:window-x="0" inkscape:window-width="1447" inkscape:window-height="861" inkscape:pageopacity="0" inkscape:pageshadow="2">
	</sodipodi:namedview>
<g id="g16" transform="scale(0.015625)">
	
		<linearGradient id="coin_1_" gradientUnits="userSpaceOnUse" x1="-245695.0781" y1="218836.125" x2="-245695.0781" y2="218835.125" gradientTransform="matrix(511.9456 0 0 -512.0052 125798880 112045232)">
		<stop  offset="0" style="stop-color:#F9AA4B"/>
		<stop  offset="1" style="stop-color:#F7931A"/>
	</linearGradient>
	<path id="coin" fill="url(#coin_1_)" d="M32274.4,20347.4C30086.1,29124.6,21196.2,34466.3,12418,32277.5
		C3643.3,30089.2-1698.4,21198.8,491,12422.1C2678.2,3643.9,11568.1-1698.3,20343.8,490
		C29121.5,2678.3,34462.7,11569.7,32274.4,20347.4L32274.4,20347.4z"/>
	<path id="symbol" fill="#FFFFFF" d="M23603.7,14049.8c326.1-2180.1-1333.8-3352.1-3603.5-4133.9l736.3-2953.2l-1797.6-448
		L18222,9390.1c-472.6-117.8-958-228.9-1440.3-338.9l721.9-2894.3l-1796.6-448L14970.3,8661c-391.2-89.1-775.2-177.2-1147.9-269.8
		l2-9.2l-2479.1-619l-478.2,1920c0,0,1333.8,305.7,1305.6,324.6c728.1,181.8,859.6,663.6,837.6,1045.5l-838.7,3364.4
		c50.2,12.8,115.2,31.2,186.9,59.9c-59.9-14.8-123.9-31.2-190-47.1l-1175.6,4713c-89.1,221.2-314.9,553-823.8,427
		c17.9,26.1-1306.6-326.1-1306.6-326.1l-892.4,2057.7l2339.3,583.2c435.2,109.1,861.7,223.2,1281.5,330.8l-743.9,2987l1795.6,448
		l736.8-2955.3c490.5,133.1,966.7,256,1432.6,371.7l-734.2,2941.4l1797.6,448l743.9-2981.4c3065.3,580.1,5370.4,346.1,6340.6-2426.4
		c781.8-2232.3-38.9-3520-1651.7-4359.7C22482.9,16418.3,23367.6,15645.7,23603.7,14049.8L23603.7,14049.8z M19496.4,19809.3
		c-555.5,2232.3-4314.1,1025.5-5532.7,722.9l987.1-3957.2C16169.4,16879.1,20077,17481.2,19496.4,19809.3z M20052.4,14017.5
		c-506.9,2030.6-3635.2,998.9-4650,746l895-3589.1C17312.2,11427.3,20580.3,11899.4,20052.4,14017.5z"/>
</g>
</svg>
