<?xml version="1.0" encoding="UTF-8" standalone="no"?>
<svg width="86px" height="57px" viewBox="0 0 86 57" version="1.1" xmlns="http://www.w3.org/2000/svg" xmlns:xlink="http://www.w3.org/1999/xlink" xmlns:sketch="http://www.bohemiancoding.com/sketch/ns">
    <!-- Generator: Sketch 3.0.3 (7892) - http://www.bohemiancoding.com/sketch -->
    <title>Nu</title>
    <desc>Created with Sketch.</desc>
    <defs>
        <path d="M75.7443054,15.7791959 L75.7443054,42.9217679 C75.7443054,43.3927887 75.5079737,43.8049318 75.0943933,44.217075 C74.6808128,44.6292182 74.0899836,44.9824838 73.3219056,45.2768718 C72.6129106,45.5712597 71.7857497,45.8067701 70.8995059,45.9834029 C70.013262,46.1600357 69.0679353,46.2189133 68.0635256,46.2189133 C67.059116,46.2189133 66.1137892,46.1600357 65.1684625,45.9834029 C64.2231357,45.8067701 63.3959748,45.5712597 62.7460627,45.2768718 C62.0961505,44.9824838 61.5053213,44.6292182 61.032658,44.217075 C60.6190775,43.8049318 60.3827458,43.3927887 60.3827458,42.9217679 L60.3827458,15.7791959 C60.3827458,15.2492975 60.1464141,15.0137871 59.6146678,15.0137871 L51.6975564,15.0137871 C51.1658101,15.0137871 50.9294784,15.2492975 50.9294784,15.7791959 L50.9294784,46.2777909 C50.9294784,47.9263636 51.4612247,49.3394259 52.4656343,50.5169779 C53.470044,51.6945298 54.7698683,52.6954489 56.3651072,53.4608577 C57.960346,54.2262664 59.7919166,54.8150424 61.8598189,55.168308 C63.9277211,55.5215736 65.9956234,55.6982063 68.1226085,55.6982063 C70.1905108,55.6982063 72.258413,55.5215736 74.2672324,55.168308 C76.3351346,54.8150424 78.1667052,54.2262664 79.7619441,53.4608577 C81.4162659,52.6954489 82.7160902,51.6945298 83.7204998,50.5169779 C84.7249095,49.3394259 85.2566558,47.9263636 85.2566558,46.2777909 L85.2566558,15.7791959 C85.2566558,15.2492975 85.0203241,15.0137871 84.4885778,15.0137871 L76.5714663,15.0137871 C76.03972,14.9549095 75.7443054,15.2492975 75.7443054,15.7791959 L75.7443054,15.7791959 L75.7443054,15.7791959 Z M0.177248765,54.5206544 C0.177248765,55.0505528 0.413580451,55.2860632 0.945326745,55.2860632 L10.6349259,55.2860632 C11.1666722,55.2860632 11.4030039,55.0505528 11.4030039,54.5206544 L11.4030039,11.1278658 C11.4030039,10.656845 11.5802526,10.4213346 11.9347502,10.4213346 C12.2301648,10.4213346 12.4664964,10.656845 12.6437452,11.1278658 L23.1014223,49.5749363 C23.337754,50.2814675 23.6331686,50.9879986 24.105832,51.6356522 C24.5784954,52.2833057 25.1102417,52.9309593 25.7601538,53.4608577 C26.4100659,53.990756 27.0599781,54.4617768 27.7098902,54.7561648 C28.4188853,55.1094304 29.0687974,55.2860632 29.6596266,55.2860632 L36.8086601,55.2860632 C37.8721527,55.2860632 38.9356453,54.9916752 39.880972,54.4617768 C40.8262988,53.9318785 41.6534597,53.2253473 42.3624547,52.3421833 C43.0714498,51.4590194 43.6031961,50.5169779 44.0167765,49.4571811 C44.430357,48.3973844 44.6666887,47.3964652 44.6666887,46.3366685 L44.6666887,0.588775966 C44.6666887,0.0588775966 44.430357,-0.17663279 43.8986107,-0.17663279 L34.2090116,-0.17663279 C33.6772653,-0.17663279 33.4409336,0.0588775966 33.4409336,0.588775966 L33.4409336,43.8049318 C33.4409336,44.3348302 33.2636848,44.5703406 32.9091873,44.5703406 C32.5546898,44.5703406 32.2592752,44.3348302 32.1411093,43.8049318 L21.7425151,5.59337167 C21.2107688,3.76816618 20.2063592,2.35510386 18.7292861,1.35418472 C17.2522131,0.294387983 14.8888962,-0.17663279 11.6393355,-0.17663279 C9.39418453,-0.17663279 7.56261396,0.0588775966 6.08554092,0.471020772 C4.60846788,0.883163948 3.42680945,1.58969511 2.54056563,2.47285906 C1.6543218,3.356023 1.06349259,4.53357494 0.649912137,6.00551485 C0.295414608,7.47745476 0.118165843,9.18490506 0.118165843,11.1867433 L0.118165843,54.5206544 L0.177248765,54.5206544 L0.177248765,54.5206544 Z" id="path-1"></path>
    </defs>
    <g id="Page-1" stroke="none" stroke-width="1" fill="none" fill-rule="evenodd" sketch:type="MSPage">
        <g id="Nu" sketch:type="MSLayerGroup" transform="translate(0.000000, 1.000000)">
            <g id="mask-2" transform="translate(0.406308, 0.000000)" fill="#FFFFFF" sketch:type="MSShapeGroup">
                <path d="M75.7443054,15.7791959 L75.7443054,42.9217679 C75.7443054,43.3927887 75.5079737,43.8049318 75.0943933,44.217075 C74.6808128,44.6292182 74.0899836,44.9824838 73.3219056,45.2768718 C72.6129106,45.5712597 71.7857497,45.8067701 70.8995059,45.9834029 C70.013262,46.1600357 69.0679353,46.2189133 68.0635256,46.2189133 C67.059116,46.2189133 66.1137892,46.1600357 65.1684625,45.9834029 C64.2231357,45.8067701 63.3959748,45.5712597 62.7460627,45.2768718 C62.0961505,44.9824838 61.5053213,44.6292182 61.032658,44.217075 C60.6190775,43.8049318 60.3827458,43.3927887 60.3827458,42.9217679 L60.3827458,15.7791959 C60.3827458,15.2492975 60.1464141,15.0137871 59.6146678,15.0137871 L51.6975564,15.0137871 C51.1658101,15.0137871 50.9294784,15.2492975 50.9294784,15.7791959 L50.9294784,46.2777909 C50.9294784,47.9263636 51.4612247,49.3394259 52.4656343,50.5169779 C53.470044,51.6945298 54.7698683,52.6954489 56.3651072,53.4608577 C57.960346,54.2262664 59.7919166,54.8150424 61.8598189,55.168308 C63.9277211,55.5215736 65.9956234,55.6982063 68.1226085,55.6982063 C70.1905108,55.6982063 72.258413,55.5215736 74.2672324,55.168308 C76.3351346,54.8150424 78.1667052,54.2262664 79.7619441,53.4608577 C81.4162659,52.6954489 82.7160902,51.6945298 83.7204998,50.5169779 C84.7249095,49.3394259 85.2566558,47.9263636 85.2566558,46.2777909 L85.2566558,15.7791959 C85.2566558,15.2492975 85.0203241,15.0137871 84.4885778,15.0137871 L76.5714663,15.0137871 C76.03972,14.9549095 75.7443054,15.2492975 75.7443054,15.7791959 L75.7443054,15.7791959 L75.7443054,15.7791959 Z M0.177248765,54.5206544 C0.177248765,55.0505528 0.413580451,55.2860632 0.945326745,55.2860632 L10.6349259,55.2860632 C11.1666722,55.2860632 11.4030039,55.0505528 11.4030039,54.5206544 L11.4030039,11.1278658 C11.4030039,10.656845 11.5802526,10.4213346 11.9347502,10.4213346 C12.2301648,10.4213346 12.4664964,10.656845 12.6437452,11.1278658 L23.1014223,49.5749363 C23.337754,50.2814675 23.6331686,50.9879986 24.105832,51.6356522 C24.5784954,52.2833057 25.1102417,52.9309593 25.7601538,53.4608577 C26.4100659,53.990756 27.0599781,54.4617768 27.7098902,54.7561648 C28.4188853,55.1094304 29.0687974,55.2860632 29.6596266,55.2860632 L36.8086601,55.2860632 C37.8721527,55.2860632 38.9356453,54.9916752 39.880972,54.4617768 C40.8262988,53.9318785 41.6534597,53.2253473 42.3624547,52.3421833 C43.0714498,51.4590194 43.6031961,50.5169779 44.0167765,49.4571811 C44.430357,48.3973844 44.6666887,47.3964652 44.6666887,46.3366685 L44.6666887,0.588775966 C44.6666887,0.0588775966 44.430357,-0.17663279 43.8986107,-0.17663279 L34.2090116,-0.17663279 C33.6772653,-0.17663279 33.4409336,0.0588775966 33.4409336,0.588775966 L33.4409336,43.8049318 C33.4409336,44.3348302 33.2636848,44.5703406 32.9091873,44.5703406 C32.5546898,44.5703406 32.2592752,44.3348302 32.1411093,43.8049318 L21.7425151,5.59337167 C21.2107688,3.76816618 20.2063592,2.35510386 18.7292861,1.35418472 C17.2522131,0.294387983 14.8888962,-0.17663279 11.6393355,-0.17663279 C9.39418453,-0.17663279 7.56261396,0.0588775966 6.08554092,0.471020772 C4.60846788,0.883163948 3.42680945,1.58969511 2.54056563,2.47285906 C1.6543218,3.356023 1.06349259,4.53357494 0.649912137,6.00551485 C0.295414608,7.47745476 0.118165843,9.18490506 0.118165843,11.1867433 L0.118165843,54.5206544 L0.177248765,54.5206544 L0.177248765,54.5206544 Z" id="path-1"></path>
            </g>
            <g id="Shape-Clipped" transform="translate(0.406308, 0.000000)">
                <mask id="mask-2" sketch:name="path-1" fill="white">
                    <use xlink:href="#path-1"></use>
                </mask>
                <g id="path-1"></g>
                <path d="M-13.1164086,52.2833057 L80.1164416,75.7754668 L98.5503131,3.17939021 L5.25838002,-20.3127708 L-13.1164086,52.2833057 L-13.1164086,52.2833057 Z" id="Shape" fill="#FFFFFF" sketch:type="MSShapeGroup" mask="url(#mask-2)"></path>
            </g>
        </g>
    </g>
</svg>